<?xml version="1.0" encoding="UTF-8" standalone="no"?>
<svg xmlns="http://www.w3.org/2000/svg" xmlns:xlink="http://www.w3.org/1999/xlink" version="1.1" width="1080" height="1080" viewBox="0 0 1080 1080" xml:space="preserve">
<desc>Created with Fabric.js 5.2.4</desc>
<defs>
</defs>
<rect x="0" y="0" width="100%" height="100%" fill="transparent"></rect>
<g transform="matrix(1 0 0 1 540 540)" id="a4ad2f51-19be-4cea-943a-34dd3676cbe3">
<rect style="stroke: none; stroke-width: 1; stroke-dasharray: none; stroke-linecap: butt; stroke-dashoffset: 0; stroke-linejoin: miter; stroke-miterlimit: 4; fill: rgb(255,255,255); fill-opacity: 0; fill-rule: nonzero; opacity: 1;" x="-540" y="-540" rx="0" ry="0" width="1080" height="1080"></rect>
</g>
<g transform="matrix(1 0 0 1 540 540)" id="d989991e-6c05-4e53-a933-32c00d6d4928">
</g>
<g transform="matrix(8.83 0 0 8.83 540 498.49)" id="9f2d3949-6378-41f6-9e5c-df62577ea128">
<circle style="stroke: rgb(0,0,0); stroke-width: 0; stroke-dasharray: none; stroke-linecap: butt; stroke-dashoffset: 0; stroke-linejoin: miter; stroke-miterlimit: 4; fill: rgb(255,255,255); fill-rule: nonzero; opacity: 1;" cx="0" cy="0" r="35"></circle>
</g>
<g transform="matrix(50.6 0 0 50.6 540 566.06)" id="8f7cfa52-f760-4029-a8f3-d297bffddf8a">
<path style="stroke: rgb(0,0,0); stroke-width: 0; stroke-dasharray: none; stroke-linecap: butt; stroke-dashoffset: 0; stroke-linejoin: miter; stroke-miterlimit: 4; fill: rgb(237,20,125); fill-rule: nonzero; opacity: 1;" transform=" translate(-12.45, -10.8)" d="M 1.9 15.2 C 1.9 11.299999999999999 1.9 7.499999999999999 1.9 3.5999999999999996 C 1.9 3.4 2 3.2 2.1 3 C 2.6 2.2 3.3 1.7 4.2 1.7 C 9.7 1.7 15.100000000000001 1.7 20.599999999999998 1.7 C 20.799999999999997 1.7 20.999999999999996 1.7 21.2 1.8 C 22.3 2.1 23 2.9 23 3.9 C 23 7.6 23 11.2 23 14.9 C 23 15.3 22.9 15.700000000000001 22.6 16 C 22.1 16.7 21.3 17.1 20.400000000000002 17.1 C 18.8 17.1 17.200000000000003 17.1 15.700000000000003 17.1 C 15.500000000000004 17.1 15.400000000000002 17.1 15.300000000000002 17.200000000000003 C 14.500000000000002 17.900000000000002 13.700000000000003 18.6 12.900000000000002 19.400000000000002 C 12.700000000000003 19.6 12.500000000000002 19.8 12.300000000000002 19.900000000000002 C 12.200000000000003 19.8 12.200000000000003 19.8 12.100000000000003 19.8 C 11.200000000000003 18.900000000000002 10.200000000000003 18.1 9.300000000000004 17.2 C 9.200000000000005 17.099999999999998 9.100000000000005 17 8.900000000000004 17 C 7.300000000000004 17 5.700000000000004 17 4.0000000000000036 17 C 3.3000000000000034 17 2.7000000000000037 16.7 2.2000000000000037 16.2 C 2.1 16 2 15.6 1.9 15.2 z M 12.2 14.2 C 12.3 14.2 12.3 14.2 12.2 14.2 C 13.7 13 15.1 11.799999999999999 16.5 10.6 C 17.2 10 17.5 9.1 17.4 8.2 C 17.299999999999997 6.999999999999999 16.4 6.1 15.399999999999999 5.8999999999999995 C 14.299999999999999 5.6 13.2 5.999999999999999 12.499999999999998 6.8999999999999995 C 12.499999999999998 6.8999999999999995 12.399999999999999 6.999999999999999 12.399999999999999 6.999999999999999 C 12.399999999999999 6.999999999999999 12.399999999999999 6.999999999999999 12.399999999999999 6.999999999999999 C 12.399999999999999 6.999999999999999 12.299999999999999 6.8999999999999995 12.299999999999999 6.8999999999999995 C 11.6 6 10.7 5.6 9.6 5.8 C 8.5 6 7.8 6.7 7.5 7.7 C 7.2 8.8 7.5 9.7 8.3 10.5 C 9 11.2 9.8 11.9 10.5 12.5 C 11.1 13.1 11.6 13.7 12.2 14.2 z" stroke-linecap="round"></path>
</g>
</svg>
